PathFileType	4	(X/Y/Z)	C:/Users/opensim2020/Desktop/walking_exp_matlab/subject06_walking21_straight_04.trc	
DataRate	CameraRate	NumFrames	NumMarkers	Units	OrigDataRate	OrigDataStartFrame	OrigNumFrames	
100.00	100.00	5	44	mm	100.00	2361	104	
Frame#	Time	LFHD			RFHD			LBHD			RBHD			C7			T10			CLAV			STRN			RBAK			LSHO			LUPA			LELB			LFRM			LWRA			LWRB			LFIN			RSHO			RUPA			RELB			RFRM			RWRA			RWRB			RFIN			LASI			RASI			LPSI			RPSI			LTHI			LKNE			LTIB			LANK			LHEE			LTOE			RTHI			RKNE			RTIB			RANK			RHEE			RTOE			*39			*40			*41			*42			*43			
		X1	Y1	Z1	X2	Y2	Z2	X3	Y3	Z3	X4	Y4	Z4	X5	Y5	Z5	X6	Y6	Z6	X7	Y7	Z7	X8	Y8	Z8	X9	Y9	Z9	X10	Y10	Z10	X11	Y11	Z11	X12	Y12	Z12	X13	Y13	Z13	X14	Y14	Z14	X15	Y15	Z15	X16	Y16	Z16	X17	Y17	Z17	X18	Y18	Z18	X19	Y19	Z19	X20	Y20	Z20	X21	Y21	Z21	X22	Y22	Z22	X23	Y23	Z23	X24	Y24	Z24	X25	Y25	Z25	X26	Y26	Z26	X27	Y27	Z27	X28	Y28	Z28	X29	Y29	Z29	X30	Y30	Z30	X31	Y31	Z31	X32	Y32	Z32	X33	Y33	Z33	X34	Y34	Z34	X35	Y35	Z35	X36	Y36	Z36	X37	Y37	Z37	X38	Y38	Z38	X39	Y39	Z39	X40	Y40	Z40	X41	Y41	Z41	X42	Y42	Z42	X43	Y43	Z43	X44	Y44	Z44	

79	0.780	1504.37390	-41.96335	1672.35620	1373.32532	-36.79153	1656.00000	1511.04285	93.12256	1622.17712	1382.17908	96.65516	1611.34436	1454.57520	97.42589	1457.60181	1446.02490	121.90760	1128.17468	1456.44214	-14.41788	1383.93323	1464.61633	-61.07317	1210.29919	1372.41504	162.75858	1284.65149	1616.34131	50.38654	1413.98840	1688.15259	61.24647	1212.67688	1699.28333	68.48274	1100.11377	1724.48962	33.31006	954.02448	1687.37207	-44.57059	848.22705	1719.33276	18.52535	835.10101	1724.00073	-33.55349	760.74640	1294.82007	30.83426	1415.63672	1196.98450	76.49393	1226.51270	1177.34985	70.87447	1105.62659	1155.56079	39.66132	990.85693	1185.64343	-43.36240	864.07275	1144.88037	10.15259	856.77679	1142.35461	-39.00040	788.31439	1559.44055	-52.18222	970.22375	1341.20605	-58.41811	975.88879	1529.18408	104.53012	994.44708	1361.52100	93.14468	1001.81543	1626.77478	-48.64180	660.74774	1609.24841	-102.22645	506.19833	1599.11023	28.18713	294.46094	1561.33423	107.37531	141.10081	1509.98804	143.75261	140.52946	1577.86938	-5.05056	54.30355	1297.61377	4.13377	638.21759	1324.85547	7.97952	512.52454	1336.56641	85.11581	254.12570	1392.21606	121.78239	74.77291	1437.06812	163.97362	53.01648	1392.37671	-28.72559	36.57921	1446.79248	59.35058	1711.05066												 
80	0.790	1504.69739	-57.06740	1670.96094	1373.61523	-51.99858	1654.88586	1511.30725	77.95739	1620.87012	1382.41052	81.46533	1610.29236	1454.49878	82.43832	1456.48535	1445.58093	107.23666	1126.79333	1456.23560	-29.13554	1382.50757	1464.07092	-75.62533	1208.80981	1371.80054	147.91452	1283.49719	1616.25586	35.52461	1412.35315	1687.83533	49.10014	1211.10706	1698.71851	58.24723	1098.67090	1724.49768	28.03356	951.85760	1687.16113	-45.71510	842.56543	1719.69592	18.13826	832.38232	1723.68811	-30.72005	755.39026	1294.64734	15.74224	1414.57495	1196.14258	60.28260	1225.50989	1176.08093	53.17291	1104.88159	1154.77954	18.03613	991.42896	1186.37354	-70.19767	868.63495	1145.15063	-16.60665	858.53583	1143.21008	-68.40943	792.30402	1558.33215	-67.49139	969.44855	1340.16968	-71.75127	973.95947	1529.47131	89.61922	993.35284	1361.49207	79.94565	1000.41016	1627.44849	-67.71583	661.55560	1609.29211	-123.32657	507.67703	1599.34949	-3.67003	288.62271	1561.61707	66.07521	130.68962	1509.91589	102.41951	127.77435	1579.93665	-51.42873	51.78860	1298.07861	-5.82300	636.88300	1324.85156	0.02502	511.19080	1336.87305	81.21521	253.89563	1392.55859	121.03108	75.13106	1437.45361	163.58308	53.74665	1392.25574	-29.15289	36.40476	1447.18811	44.12414	1709.83972												 
81	0.800	1505.07593	-72.21690	1669.34827	1373.91931	-67.19754	1653.49353	1511.50403	62.82886	1619.27368	1382.58838	66.24390	1608.94824	1454.26904	67.33227	1455.05579	1445.23328	92.58813	1125.20044	1456.12036	-44.05005	1380.87512	1463.54089	-90.23619	1207.11536	1371.17920	133.12387	1282.14441	1616.23425	20.52791	1410.49146	1687.51392	36.74770	1209.24609	1698.22449	47.91330	1097.01941	1723.89282	22.66976	949.24725	1686.95959	-46.68225	837.10699	1719.45032	17.27864	829.48572	1723.43286	-27.80351	750.48999	1294.49365	0.64271	1413.20862	1195.38708	44.21186	1224.15100	1174.88086	35.50763	1103.96887	1154.27014	-3.52175	991.93549	1187.00537	-96.00793	872.96930	1145.45483	-43.12925	860.54053	1144.16284	-97.76919	796.55920	1557.32629	-82.77206	968.43359	1339.15881	-85.34591	971.96466	1529.91101	74.65504	991.91693	1361.96826	65.81473	998.58344	1628.60840	-87.51166	662.66010	1609.40076	-143.85501	508.80511	1599.71851	-35.67938	282.64044	1562.26868	23.69791	120.48245	1510.14758	59.27341	114.83324	1581.86853	-98.24594	49.90305	1298.63745	-16.29672	635.33893	1325.05334	-8.11445	509.63654	1337.14063	77.44985	253.52211	1392.95532	120.30909	75.53054	1437.87097	163.14679	54.40284	1392.51672	-29.55721	36.08585	1447.57349	28.91640	1708.31494												 
82	0.810	1505.43286	-87.56047	1667.50281	1374.19958	-82.42484	1651.82495	1511.76331	47.57301	1617.43835	1382.82324	50.97334	1607.28333	1454.35144	52.40305	1453.41138	1445.09399	78.00768	1123.45789	1456.05359	-58.96771	1378.90308	1463.05212	-104.82549	1205.10291	1370.62000	118.39692	1280.58215	1616.28479	5.37074	1408.36829	1687.23071	24.17060	1207.24890	1697.79395	37.46128	1095.26563	1723.56665	17.05747	946.83545	1686.79443	-47.67781	831.83685	1719.41052	16.36028	826.96570	1723.25659	-25.26090	745.96906	1294.38599	-14.50223	1411.63489	1194.73889	27.99932	1222.60864	1173.76086	17.94845	1102.79993	1153.83459	-25.04902	992.44568	1187.69531	-121.55813	877.38849	1145.92273	-69.35130	862.58142	1145.27844	-126.52244	800.85382	1556.40698	-98.00309	967.09949	1338.31982	-99.09349	969.84570	1530.51050	59.65406	990.23108	1362.58704	51.85158	996.67780	1629.37036	-105.41783	662.13763	1609.49988	-163.86070	509.45108	1600.34375	-67.90804	276.64948	1563.06213	-19.10701	110.89219	1510.75610	15.93857	102.77755	1583.71692	-145.22253	48.84803	1299.35571	-26.93306	633.50403	1325.50024	-16.80098	507.92926	1337.67188	73.46227	253.11028	1393.35156	119.67541	76.01452	1438.53406	162.81879	55.09127	1392.19019	-29.59848	36.07764	1447.92688	13.65843	1706.57288												 
83	0.820	1505.73743	-102.84531	1665.35681	1374.50818	-97.82456	1649.87866	1511.96033	32.33630	1615.37817	1382.99170	35.56739	1605.34070	1454.30164	37.19984	1451.38916	1444.96851	63.44427	1121.49719	1455.91394	-73.96774	1376.71765	1462.53137	-119.38390	1202.80188	1370.18762	103.55939	1278.89001	1616.20020	-10.01698	1405.90710	1686.94092	11.37772	1205.04321	1697.28760	26.83066	1093.33374	1723.23621	11.34537	944.49518	1686.48254	-48.93956	826.97192	1719.71765	15.37490	824.90070	1723.14661	-22.89548	741.91785	1294.35315	-29.61312	1409.81616	1194.13977	11.79971	1220.80200	1172.80042	0.36681	1101.45471	1153.38123	-46.11142	992.71899	1188.36145	-145.89885	881.45172	1146.51819	-95.24799	864.71924	1146.55798	-154.84271	805.45313	1555.65332	-113.12957	965.43976	1337.58081	-113.01294	967.60028	1531.14661	44.63500	988.22296	1362.98938	37.84528	994.33966	1630.03723	-122.63857	661.48083	1609.60229	-183.17241	509.54340	1601.15173	-100.25968	270.69757	1564.22412	-62.35601	102.18615	1512.33118	-27.85045	91.68311	1585.00781	-192.85666	49.05482	1300.00208	-37.70792	631.47681	1325.99048	-25.53413	506.03192	1338.30103	69.62148	252.81725	1393.82727	118.90679	76.51981	1438.87024	162.32933	56.16675	1392.24219	-29.86858	35.96826	1448.26941	-1.66200	1704.58667												 
